<svg width="28" height="28" viewBox="0 0 28 28" fill="none" xmlns="http://www.w3.org/2000/svg">
<path d="M6.11959e-07 14C2.73749e-07 6.26265 6.26155 -2.73701e-07 14 -6.11959e-07C21.7374 -9.50172e-07 28 6.26155 28 14C28 21.7373 21.7384 28 14 28C6.26259 28 9.50218e-07 21.7384 6.11959e-07 14ZM25.7621 15.0937L13.547 15.0937L17.867 19.4137C18.2941 19.8408 18.2942 20.5334 17.867 20.9606C17.4398 21.3877 16.7473 21.3877 16.3202 20.9606C16.1402 20.7806 10.2071 14.8476 10.131 14.7711C9.70889 14.3467 9.70544 13.6567 10.131 13.2288C10.1317 13.2281 10.1323 13.2273 10.133 13.2266L16.3202 7.03943C16.7473 6.61232 17.4398 6.61232 17.867 7.03943C18.2941 7.46659 18.2941 8.15915 17.867 8.58626L13.547 12.9062L25.7621 12.9062C25.217 6.93 20.1959 2.1875 14 2.1875C7.47157 2.1875 2.1875 7.47069 2.1875 14C2.1875 20.5284 7.4707 25.8125 14 25.8125C20.195 25.8125 25.2169 21.0708 25.7621 15.0937Z" fill="#0A3C48"/>
</svg>
