<svg width="24" height="24" viewBox="0 0 24 24" fill="none" xmlns="http://www.w3.org/2000/svg">
<path d="M24 12C24 5.36798 18.633 -2.34601e-07 12 -5.24537e-07C5.36794 -8.14433e-07 -2.34601e-07 5.36705 -5.24537e-07 12C-8.14431e-07 18.632 5.36705 24 12 24C18.6321 24 24 18.633 24 12ZM1.91817 12.9375L12.3883 12.9375L8.68542 16.6403C8.31933 17.0064 8.31928 17.6001 8.68542 17.9662C9.05156 18.3323 9.64514 18.3323 10.0112 17.9662C10.1655 17.8119 15.251 12.7265 15.3163 12.6609C15.6781 12.2971 15.681 11.7058 15.3163 11.339C15.3157 11.3384 15.3152 11.3377 15.3145 11.337L10.0113 6.0338C9.64514 5.6677 9.05156 5.6677 8.68547 6.0338C8.31933 6.39994 8.31933 6.99356 8.68547 7.35966L12.3883 11.0625L1.91817 11.0625C2.38542 5.94 6.68925 1.875 12 1.875C17.5958 1.875 22.125 6.40345 22.125 12C22.125 17.5958 17.5965 22.125 12 22.125C6.69 22.125 2.38551 18.0607 1.91817 12.9375Z" fill="#4CB32B"/>
</svg>
