<svg width="28" height="28" viewBox="0 0 28 28" fill="none" xmlns="http://www.w3.org/2000/svg">
<path d="M23.899 4.1C21.941 2.14221 19.4464 0.808985 16.7307 0.268908C14.015 -0.271169 11.2002 0.00616073 8.6421 1.06583C6.08402 2.1255 3.8976 3.91991 2.35933 6.22217C0.82105 8.52442 0 11.2311 0 14C0 16.7689 0.82105 19.4756 2.35933 21.7778C3.8976 24.0801 6.08402 25.8745 8.6421 26.9342C11.2002 27.9938 14.015 28.2712 16.7307 27.7311C19.4464 27.191 21.941 25.8578 23.899 23.9C25.1992 22.6 26.2305 21.0565 26.9342 19.3579C27.6378 17.6592 28 15.8386 28 14C28 12.1614 27.6378 10.3408 26.9342 8.64211C26.2305 6.94345 25.1992 5.40004 23.899 4.1ZM18.999 17.54C19.0989 17.6335 19.1785 17.7466 19.233 17.8722C19.2874 17.9977 19.3155 18.1331 19.3155 18.27C19.3155 18.4069 19.2874 18.5423 19.233 18.6678C19.1785 18.7934 19.0989 18.9065 18.999 19C18.9055 19.0927 18.7947 19.166 18.6729 19.2158C18.5511 19.2655 18.4206 19.2908 18.289 19.29C18.0266 19.2889 17.7752 19.1847 17.589 19L13.999 15.41L10.459 19C10.2727 19.1847 10.0213 19.2889 9.75899 19.29C9.62738 19.2908 9.49692 19.2655 9.37508 19.2158C9.25325 19.166 9.14243 19.0927 9.04899 19C8.86274 18.8126 8.7582 18.5592 8.7582 18.295C8.7582 18.0308 8.86274 17.7774 9.04899 17.59L12.589 14L9.04899 10.46C8.88516 10.2687 8.79956 10.0226 8.80928 9.77095C8.819 9.51927 8.92333 9.28053 9.10143 9.10244C9.27952 8.92435 9.51826 8.82001 9.76994 8.81029C10.0216 8.80057 10.2677 8.88618 10.459 9.05L13.999 12.59L17.539 9.05C17.6316 8.95414 17.7421 8.87745 17.8643 8.82431C17.9866 8.77117 18.1181 8.74263 18.2513 8.7403C18.3846 8.73798 18.517 8.76193 18.641 8.81078C18.765 8.85963 18.8781 8.93242 18.974 9.025C19.0699 9.11758 19.1465 9.22814 19.1997 9.35036C19.2528 9.47258 19.2814 9.60407 19.2837 9.73732C19.286 9.87058 19.2621 10.003 19.2132 10.127C19.1644 10.251 19.0916 10.3641 18.999 10.46L15.409 14L18.999 17.54Z" fill="#0A3C48"/>
</svg>
