<svg width="200" height="200" viewBox="0 0 200 200" fill="none" xmlns="http://www.w3.org/2000/svg">
<path d="M141.906 167.469C142.494 168.042 142.96 168.727 143.277 169.484C143.593 170.241 143.754 171.054 143.75 171.875C143.745 173.531 143.085 175.118 141.914 176.289C140.743 177.46 139.156 178.12 137.5 178.125H125C123.346 178.113 121.764 177.45 120.594 176.281C119.425 175.111 118.762 173.529 118.75 171.875C118.755 170.219 119.415 168.632 120.586 167.461C121.757 166.29 123.344 165.63 125 165.625H137.5C138.321 165.621 139.134 165.782 139.891 166.098C140.648 166.415 141.333 166.881 141.906 167.469Z" fill="#E8FFE0"/>
<path d="M124.469 47.4063C126.521 49.453 127.8 52.1481 128.088 55.0323C128.375 57.9165 127.654 60.8112 126.046 63.2228C124.438 65.6345 122.043 67.4138 119.27 68.2576C116.498 69.1013 113.518 68.9572 110.839 67.8498C108.161 66.7424 105.949 64.7403 104.581 62.1847C103.214 59.6291 102.775 56.6783 103.339 53.8354C103.904 50.9924 105.437 48.4332 107.677 46.5941C109.918 44.755 112.727 43.7499 115.625 43.75C118.94 43.7559 122.118 45.0699 124.469 47.4063Z" fill="#E8FFE0"/>
<path d="M115.625 90.625V190.625L103.125 175V90.625H115.625Z" fill="#E8FFE0"/>
<path d="M103.125 175L115.625 190.625H90.625L103.125 175Z" fill="#E8FFE0"/>
<path d="M103.125 90.625V175L90.625 190.625V90.625H103.125Z" fill="#E8FFE0"/>
<path d="M71.875 90.625H9.375V190.625H90.625V90.625H71.875ZM62.5 137.5H37.5C35.8579 137.502 34.2315 137.18 32.714 136.553C31.1965 135.925 29.8177 135.005 28.6566 133.843C27.4954 132.682 26.5748 131.303 25.9473 129.786C25.3199 128.268 24.9979 126.642 25 125V103.125H37.5V125H62.5V103.125H75V125C74.9956 128.038 73.8847 130.971 71.875 133.25C71.7147 133.462 71.537 133.661 71.3438 133.844C68.9927 136.18 65.8145 137.494 62.5 137.5Z" fill="#E8FFE0"/>
<path d="M75 103.125V125C74.9956 128.038 73.8847 130.971 71.875 133.25V103.125H75Z" fill="#E8FFE0"/>
<path d="M193.75 25V175C193.75 179.973 191.775 184.742 188.258 188.258C184.742 191.775 179.973 193.75 175 193.75H125V187.5H175C178.315 187.5 181.495 186.183 183.839 183.839C186.183 181.495 187.5 178.315 187.5 175V25C187.5 21.6848 186.183 18.5054 183.839 16.1612C181.495 13.817 178.315 12.5 175 12.5H87.5C84.1848 12.5 81.0054 13.817 78.6612 16.1612C76.317 18.5054 75 21.6848 75 25V81.25H68.75V25C68.75 20.0272 70.7254 15.2581 74.2417 11.7417C77.7581 8.22544 82.5272 6.25 87.5 6.25H175C179.973 6.25 184.742 8.22544 188.258 11.7417C191.775 15.2581 193.75 20.0272 193.75 25Z" fill="#4CB32B"/>
<path d="M137.5 175H125V181.25H137.5C139.986 181.25 142.371 180.262 144.129 178.504C145.887 176.746 146.875 174.361 146.875 171.875C146.875 169.389 145.887 167.004 144.129 165.246C142.371 163.488 139.986 162.5 137.5 162.5H125V168.75H137.5C138.329 168.75 139.124 169.079 139.71 169.665C140.296 170.251 140.625 171.046 140.625 171.875C140.625 172.704 140.296 173.499 139.71 174.085C139.124 174.671 138.329 175 137.5 175Z" fill="#4CB32B"/>
<path d="M109.375 18.75H115.625V25H109.375V18.75Z" fill="#4CB32B"/>
<path d="M121.875 18.75H140.625V25H121.875V18.75Z" fill="#4CB32B"/>
<path d="M75 100H62.5C61.6712 100 60.8763 100.329 60.2903 100.915C59.7042 101.501 59.375 102.296 59.375 103.125V121.875H40.625V103.125C40.625 102.296 40.2958 101.501 39.7097 100.915C39.1237 100.329 38.3288 100 37.5 100H25C24.1712 100 23.3763 100.329 22.7903 100.915C22.2042 101.501 21.875 102.296 21.875 103.125V125C21.88 129.142 23.5278 133.114 26.4569 136.043C29.3861 138.972 33.3575 140.62 37.5 140.625H62.5C66.6425 140.62 70.6139 138.972 73.5431 136.043C76.4722 133.114 78.12 129.142 78.125 125V103.125C78.125 102.296 77.7958 101.501 77.2097 100.915C76.6237 100.329 75.8288 100 75 100ZM28.125 125V106.25H34.375V133.841C32.5484 133.192 30.9672 131.994 29.8483 130.411C28.7293 128.829 28.1274 126.938 28.125 125ZM40.625 128.125H59.375V134.375H40.625V128.125ZM71.875 125C71.8726 126.938 71.2707 128.829 70.1517 130.411C69.0328 131.994 67.4516 133.192 65.625 133.841V106.25H71.875V125Z" fill="#4CB32B"/>
<path d="M115.625 87.5H9.375C8.5462 87.5 7.75134 87.8292 7.16529 88.4153C6.57924 89.0013 6.25 89.7962 6.25 90.625V190.625C6.25 191.454 6.57924 192.249 7.16529 192.835C7.75134 193.421 8.5462 193.75 9.375 193.75H115.625C116.454 193.75 117.249 193.421 117.835 192.835C118.421 192.249 118.75 191.454 118.75 190.625V90.625C118.75 89.7962 118.421 89.0013 117.835 88.4153C117.249 87.8292 116.454 87.5 115.625 87.5ZM87.5 187.5H12.5V93.75H87.5V187.5ZM93.75 93.75H100V173.906L93.75 181.719V93.75ZM97.125 187.5L103.125 180L109.125 187.5H97.125ZM112.5 181.719L106.25 173.906V93.75H112.5V181.719Z" fill="#4CB32B"/>
<path d="M100 56.25C99.995 58.6889 100.561 61.0952 101.653 63.2761C102.744 65.4571 104.331 67.3522 106.287 68.8098C108.242 70.2674 110.512 71.2471 112.914 71.6703C115.316 72.0935 117.783 71.9485 120.119 71.247C122.455 70.5455 124.594 69.307 126.366 67.6305C128.137 65.9539 129.491 63.886 130.32 61.5923C131.149 59.2985 131.429 56.8425 131.139 54.421C130.848 51.9994 129.995 49.6795 128.647 47.6469L133.459 42.8344L129.041 38.4156L124.228 43.2281C121.876 41.6667 119.144 40.7728 116.324 40.6417C113.504 40.5106 110.701 41.1473 108.215 42.4838C105.728 43.8204 103.65 45.8067 102.204 48.231C100.757 50.6554 99.9955 53.4269 100 56.25ZM115.625 46.875C117.017 46.8804 118.39 47.2009 119.641 47.8125L110.291 57.1625L114.709 61.5813L124.063 52.2344C124.674 53.485 124.995 54.8579 125 56.25C125 58.1042 124.45 59.9168 123.42 61.4585C122.39 63.0002 120.926 64.2018 119.213 64.9114C117.5 65.6209 115.615 65.8066 113.796 65.4449C111.977 65.0831 110.307 64.1903 108.996 62.8791C107.685 61.568 106.792 59.8976 106.43 58.079C106.068 56.2604 106.254 54.3754 106.964 52.6623C107.673 50.9493 108.875 49.4851 110.417 48.455C111.958 47.4248 113.771 46.875 115.625 46.875Z" fill="#4CB32B"/>
<path d="M140.625 46.875H159.375V53.125H140.625V46.875Z" fill="#4CB32B"/>
<path d="M140.625 59.375H159.375V65.625H140.625V59.375Z" fill="#4CB32B"/>
<path d="M131.25 93.75H175V100H131.25V93.75Z" fill="#4CB32B"/>
<path d="M131.25 106.25H175V112.5H131.25V106.25Z" fill="#4CB32B"/>
<path d="M131.25 118.75H175V125H131.25V118.75Z" fill="#4CB32B"/>
<path d="M131.25 131.25H175V137.5H131.25V131.25Z" fill="#4CB32B"/>
</svg>
