<svg viewBox="0 0 512 512" xmlns="http://www.w3.org/2000/svg"><path d="m256 0c-141.484375 0-256 114.496094-256 256 0 11.046875 8.953125 20 20 20h150.03125l-23.535156 96.617188c-17.277344 70.929687 36.390625 139.382812 109.503906 139.382812 73 0 126.808594-68.347656 109.503906-139.382812l-23.535156-96.617188h150.03125c11.046875 0 20-8.953125 20-20 0-141.484375-114.496094-256-256-256zm0 472c-47.089844 0-81.800781-44.089844-70.640625-89.914062l25.839844-106.085938h89.601562l25.839844 106.085938c11.144531 45.753906-23.476563 89.914062-70.640625 89.914062zm-215.09375-236c9.964844-109.253906 101.800781-196 215.09375-196 113.253906 0 205.121094 86.707031 215.09375 196-22.535156 0-406.421875 0-430.1875 0zm240.09375-128c0 13.808594-11.191406 25-25 25s-25-11.191406-25-25 11.191406-25 25-25 25 11.191406 25 25zm-105 69c0 13.808594-11.191406 25-25 25s-25-11.191406-25-25 11.191406-25 25-25 25 11.191406 25 25zm200 0c0 13.808594-11.191406 25-25 25s-25-11.191406-25-25 11.191406-25 25-25 25 11.191406 25 25zm0 0"/></svg>