<svg width="15" height="18" viewBox="0 0 15 18" fill="none" xmlns="http://www.w3.org/2000/svg">
<path d="M8.75 4.78125V0H0.9375C0.417969 0 0 0.376172 0 0.84375V17.1562C0 17.6238 0.417969 18 0.9375 18H14.0625C14.582 18 15 17.6238 15 17.1562V5.625H9.6875C9.17188 5.625 8.75 5.24531 8.75 4.78125ZM11.2961 12.3754H8.75V15.1879C8.75 15.4986 8.47031 15.7504 8.125 15.7504H6.875C6.52969 15.7504 6.25 15.4986 6.25 15.1879V12.3754H3.70391C3.14609 12.3754 2.86758 11.7675 3.26367 11.4135L7.03008 8.04902C7.28984 7.81664 7.70937 7.81664 7.96914 8.04902L11.7355 11.4135C12.132 11.7675 11.8539 12.3754 11.2961 12.3754ZM14.7266 3.69141L10.9023 0.246094C10.7266 0.0878906 10.4883 0 10.2383 0H10V4.5H15V4.28555C15 4.06406 14.9023 3.84961 14.7266 3.69141Z" fill="white"/>
</svg>
